<?xml version="1.0" encoding="UTF-8" standalone="no"?>
<!-- Created with Inkscape (http://www.inkscape.org/) -->

<svg
   xmlns:dc="http://purl.org/dc/elements/1.1/"
   xmlns:cc="http://creativecommons.org/ns#"
   xmlns:rdf="http://www.w3.org/1999/02/22-rdf-syntax-ns#"
   xmlns:svg="http://www.w3.org/2000/svg"
   xmlns="http://www.w3.org/2000/svg"
   xmlns:sodipodi="http://sodipodi.sourceforge.net/DTD/sodipodi-0.dtd"
   xmlns:inkscape="http://www.inkscape.org/namespaces/inkscape"
   version="1.1"
   id="svg2"
   width="136"
   height="111"
   viewBox="0 0 136 111"
   sodipodi:docname="slime.svg"
   inkscape:version="0.92.4 (5da689c313, 2019-01-14)">
  <metadata
     id="metadata8">
    <rdf:RDF>
      <cc:Work
         rdf:about="">
        <dc:format>image/svg+xml</dc:format>
        <dc:type
           rdf:resource="http://purl.org/dc/dcmitype/StillImage" />
        <dc:title></dc:title>
      </cc:Work>
    </rdf:RDF>
  </metadata>
  <defs
     id="defs6" />
  <sodipodi:namedview
     pagecolor="#ffffff"
     bordercolor="#666666"
     borderopacity="1"
     objecttolerance="10"
     gridtolerance="10"
     guidetolerance="10"
     inkscape:pageopacity="0"
     inkscape:pageshadow="2"
     inkscape:window-width="1280"
     inkscape:window-height="738"
     id="namedview4"
     showgrid="false"
     inkscape:zoom="6.0135928"
     inkscape:cx="55.911646"
     inkscape:cy="48.145923"
     inkscape:window-x="-8"
     inkscape:window-y="-8"
     inkscape:window-maximized="1"
     inkscape:current-layer="svg2" />
  <path
     style="fill:#67b7ff;fill-opacity:1;stroke:#000000;stroke-width:0.69588482px;stroke-linecap:butt;stroke-linejoin:miter;stroke-opacity:1"
     d="m 34.347682,93.92256 c 3.979533,-5.938927 6.808091,-6.864267 13.703414,-11.907091 l 12.028184,-3.28642 10.267962,-1.095473 c 11.270254,2.252346 22.79463,2.612544 27.57681,8.581206 0,0 1.17348,3.834154 3.813818,5.842522 5.34107,4.891427 10.22195,2.874706 7.921,9.676676 l -3.81382,2.5561 -6.160774,1.27806 c 0,0 -5.867411,-1.64321 -7.334263,-1.64321 -1.466847,0 -11.44144,1.64321 -11.44144,1.64321 l -3.520443,2.00836 c 0,0 -6.454148,-0.54773 -9.681221,-0.54773 -3.227074,0 -11.734814,-0.73032 -14.668518,0 -2.933703,0.73031 -9.38785,0.73031 -9.38785,0.73031 l -3.227075,-2.00836 -7.627628,-1.27806 c -4.930001,-3.39016 -0.965721,-6.766777 1.551844,-10.5501 z"
     id="path12"
     inkscape:connector-curvature="0"
     sodipodi:nodetypes="cccccccccsccsccccc" />
  <path
     style="fill:#1a1a1a;stroke:#000000;stroke-width:0.88951218px;stroke-linecap:butt;stroke-linejoin:miter;stroke-opacity:1"
     d="m 54.634286,89.216476 c 1.082186,0.690493 2.164028,1.249512 2.806252,1.078263 0.417298,-0.111273 0.648989,-0.530865 0.574564,-1.423047 -0.762218,-1.202323 -1.554785,-1.962115 -2.183482,-2.143335 -0.812241,-0.234126 -1.350961,0.497458 -1.197337,2.488119 z"
     id="path822"
     inkscape:connector-curvature="0"
     sodipodi:nodetypes="cscscc" />
  <path
     style="fill:#1a1a1a;stroke:#000000;stroke-width:0.88951218px;stroke-linecap:butt;stroke-linejoin:miter;stroke-opacity:1"
     d="m 72.661646,87.596381 c -0.657202,1.102721 -1.373101,2.087796 -2.023872,2.222982 -0.422851,0.08784 -0.818206,-0.183146 -1.152094,-1.013837 0.141564,-1.416515 0.508851,-2.451188 0.989351,-2.895283 0.620779,-0.573745 1.430524,-0.161741 2.186617,1.686137 z"
     id="path822-4"
     inkscape:connector-curvature="0"
     sodipodi:nodetypes="cscscc" />
  <path
     style="fill:#1a1a1a;stroke:#000000;stroke-width:1px;stroke-linecap:butt;stroke-linejoin:miter;stroke-opacity:1;fill-opacity:1"
     d="m 57.20374,97.031645 3.658379,0.83145 h 3.990959 l 5.986437,-0.16629 1.16403,-0.99774 -6.152728,0 -2.993219,-0.49887 h -2.826929 z"
     id="path839"
     inkscape:connector-curvature="0" />
</svg>
